# xmcd CD database file
#
# Track frame offsets:
#	150
#	21450
#	41700
#	64137
#	85500
#
# Disc length: 1420 seconds
#
# Revision: 0
# Processed by: cddbd v1.5PL3 Copyright (c) Steve Scherf et al.
# Submitted via: CDex 1.51
#
DISCID=3a058a05
DTITLE=TRANSTIC NERVE - 微熱
DYEAR=2000
DGENRE=JPop
TTITLE0=微熱
TTITLE1=Another sky
TTITLE2=END -THE EDGE OF A CLIFF MIX-
TTITLE3=TIGER -A-STYLE-
TTITLE4=微熱 -off vocal version-
EXTD=YEAR: 2000
EXTT0=
EXTT1=
EXTT2=
EXTT3=
EXTT4=
PLAYORDER=
